<?xml version="1.0" encoding="UTF-8"?>
<svg xmlns="http://www.w3.org/2000/svg" width="256" height="256" viewBox="0 0 32 32" shape-rendering="crispEdges" >
  <!-- Background (transparent) -->
  <rect width="32" height="32" fill="none"/>

  <!-- Speech bubble (top) -->
  <rect x="6" y="1" width="20" height="11" rx="0.5" fill="#FFF3E6" stroke="#2B1716" stroke-width="1"/>
  <!-- Bubble tail (pixel style) -->
  <rect x="15" y="11" width="2" height="2" fill="#2B1716"/>
  <rect x="14" y="12" width="1" height="1" fill="#FFF3E6"/>
  <rect x="17" y="12" width="1" height="1" fill="#FFF3E6"/>

  <!-- Ellipsis dots inside bubble -->
  <rect x="11" y="4" width="2" height="2" fill="#2B1716"/>
  <rect x="15" y="4" width="2" height="2" fill="#2B1716"/>
  <rect x="19" y="4" width="2" height="2" fill="#2B1716"/>

  <!-- Box base (front face) -->
  <!-- Outline of box -->
  <rect x="4" y="13" width="24" height="14" fill="#C56B2E" stroke="#2B1716" stroke-width="1"/>

  <!-- Inner shading blocks to create pixelated wooden look -->
  <rect x="6" y="15" width="6" height="4" fill="#E08A3C"/>
  <rect x="13" y="15" width="5" height="4" fill="#B85522"/>
  <rect x="19" y="15" width="5" height="4" fill="#C25A26"/>

  <!-- Left side face (darker) -->
  <rect x="3" y="14" width="3" height="12" fill="#7A3F24" stroke="#2B1716" stroke-width="0.5"/>
  <!-- Right side face (darker) -->
  <rect x="26" y="14" width="3" height="12" fill="#7A3F24" stroke="#2B1716" stroke-width="0.5"/>

  <!-- Top rim of box -->
  <rect x="6" y="12" width="20" height="2" fill="#8B3E1D" stroke="#2B1716" stroke-width="1"/>

  <!-- Inner dark cavity hint -->
  <rect x="10" y="17" width="12" height="6" fill="#4A2617"/>

  <!-- Little highlights (pixel feel) -->
  <rect x="8" y="18" width="1" height="1" fill="#FFD59A"/>
  <rect x="21" y="18" width="1" height="1" fill="#FFD59A"/>

  <!-- Optional small speech-note overlapping the box (to suggest 'words inside') -->
  <rect x="12" y="9" width="2" height="2" fill="#2B1716"/>
</svg>
